<?xml version="1.0" encoding="UTF-8" standalone="no"?>
<svg width="95px" height="24px" viewBox="0 0 95 24" version="1.1" xmlns="http://www.w3.org/2000/svg">
  <g stroke="none" stroke-width="1" fill="none" fill-rule="evenodd">
    <path fill="#D03E28" d="M22.7239803,17.1520982 L22.5275362,17.6463768 L20.2666667,18.8869565 L14.6434783,17.484058 L14.7269928,17.3460774 C14.7146198,17.3418439 14.7022405,17.3375958 14.6898551,17.3333333 C15.0956522,16.6028986 15.4782609,15.826087 15.8144928,14.9913043 C15.8376812,14.9217391 15.8724638,14.8521739 15.8956522,14.7826087 C16.0695652,14.3304348 16.2434783,13.8550725 16.3942029,13.3797101 C17.3217391,10.5043478 17.6115942,7.69855072 17.3449275,5.41449275 C17.23651,4.49294333 17.0368491,3.66263721 16.7554251,2.9425348 L16.6608696,2.73623188 L18.1449275,2.13333333 L20.2898551,3.44347826 L20.5536715,3.74027179 C20.7840895,3.90258175 20.9906656,4.08577608 21.1710145,4.28985507 L21.1826087,4.30144928 L21.1942029,4.31304348 L21.1826087,4.30144928 C22.1333333,5.44927536 22.8405797,6.71304348 23.3043478,8.03478261 C24.2898551,10.8753623 24.173913,13.9942029 22.9797101,16.7536232 C22.9565217,16.8 22.9333333,16.8463768 22.9101449,16.8811594 C22.8553328,16.9764848 22.7931731,17.0667894 22.7239803,17.1520982 L22.7239803,17.1520982 Z"></path>
    <path fill="#EDD26B" d="M13.986262,0.173552094 C13.8858593,0.14858821 13.7835094,0.128735772 13.6811594,0.115942029 C13.1246377,0.0463768116 12.5565217,0.0115942029 11.9768116,0.0115942029 C11.2811594,0.0115942029 10.5971014,0.0695652174 9.93623188,0.185507246 C9.54202899,0.255072464 9.15942029,0.336231884 8.7884058,0.44057971 C6.19130435,1.15942029 3.94202899,2.72463768 2.37681159,4.82318841 L2.35362319,4.84637681 C2.33043478,4.88115942 2.28405797,4.96231884 2.26086957,4.99710145 C2.18093097,5.13699399 2.11821591,5.28765123 2.07272437,5.44628994 L1.9942029,5.47246377 L1.91304348,5.79710145 L1.86666667,6.42318841 L2.43478261,8.60289855 L3.16521739,9.42608696 L3.23770587,9.30527283 L3.23770587,9.30527283 C3.25208059,9.32620188 3.26656534,9.3471498 3.28115942,9.36811594 C4.16231884,8.4057971 5.22898551,7.45507246 6.45797101,6.58550725 C7.01449275,6.19130435 7.6173913,5.80869565 8.23188406,5.44927536 C8.86956522,5.07826087 9.50724638,4.75362319 10.1449275,4.46376812 C10.8057971,4.16231884 11.4666667,3.89565217 12.1043478,3.67536232 C13.6810152,3.13479065 15.2029869,2.84581921 16.5640066,2.79782237 L16.6956522,2.8173913 L16.8463768,2.65507246 C16.8463768,2.65507246 16.8347826,2.17971014 16.7884058,2.12173913 C16.742029,2.06376812 16.3826087,1.39130435 16.3826087,1.39130435 L15.2115942,0.637681159 L14.4811594,0.289855072 L14.2028986,0.208695652 L13.9942029,0.173913043 L13.986262,0.173552094 L13.986262,0.173552094 Z"></path>
    <path fill="#4D6335" d="M0.54644449,14.8328175 L1.27625152,14.5596077 L1.29855072,15.6869565 L1.14782609,16.2782609 L1.55362319,15.9768116 L1.94475694,14.3093467 L1.94475694,14.3093467 L2.72463768,14.0173913 L2.20230511,13.2113781 L2.43478261,12.2202899 L3.24637681,9.54202899 L3.20716712,9.4636096 C3.23549945,9.43175718 3.26402877,9.39992534 3.29275362,9.36811594 C2.48115942,8.19710145 1.9942029,7.06086957 1.9942029,6.11014493 C1.9942029,5.70434783 2.08695652,5.32173913 2.27246377,4.99710145 C2.28405797,4.95072464 2.33043478,4.88115942 2.35362319,4.84637681 C2.34202899,4.86956522 2.31884058,4.90434783 2.29565217,4.93913043 C2.31884058,4.90434783 2.34202899,4.86956522 2.35362319,4.84637681 C2.34202899,4.86956522 2.31884058,4.90434783 2.29565217,4.93913043 C2.31884058,4.90434783 2.34202899,4.86956522 2.35362319,4.84637681 C1.02028986,6.64347826 0.173913043,8.82318841 0.0231884058,11.1884058 C0.0115942029,11.4550725 3.13082893e-14,11.7217391 3.13082893e-14,11.9884058 C3.13082893e-14,12.5101449 0.0347826087,13.0202899 0.104347826,13.5304348 C0.220289855,14.4 0.417391304,15.2463768 0.707246377,16.0463768 C0.614492754,15.7449275 0.556521739,15.4318841 0.544927536,15.1072464 L0.544927536,15.0492754 L0.544927536,14.9449275 C0.544927536,14.9077173 0.545434343,14.8703458 0.54644449,14.8328175 L0.54644449,14.8328175 Z"></path>
    <path fill="#51777B" d="M14.6665186,17.4067139 L14.7594203,17.4376812 L12.5681159,22.8289855 L9.21574652,22.8359262 L9.43768116,23.5942029 L7.6057971,23.026087 L7.58957206,22.9721497 C7.38161733,22.9496559 7.17833003,22.9067863 6.97971014,22.8405797 C6.97968629,22.8405718 6.97966243,22.8405638 6.97963858,22.8405559 L6.96811594,22.8405797 L6.97358879,22.8385393 C6.94084663,22.8276252 6.90810447,22.8167112 6.87536232,22.8057971 C6.77101449,22.7594203 6.63188406,22.7014493 6.57391304,22.6782609 C3.93043478,21.3449275 1.85507246,19.0492754 0.788405797,16.2550725 C0.753623188,16.1855072 0.730434783,16.115942 0.707246377,16.0463768 C0.614492754,15.7913043 0.568115942,15.5130435 0.544927536,15.2347826 L0.544927536,15.1072464 C0.533333333,15.0492754 0.533333333,15.0028986 0.533333333,14.9449275 C0.533333333,13.2753623 1.54202899,11.2811594 3.28115942,9.36811594 C3.96521739,10.3536232 4.91594203,11.3855072 6.09855072,12.4057971 C7.24637681,13.3913043 8.61449275,14.3652174 10.1333333,15.2463768 C11.0492754,15.7681159 12.8463768,16.6144928 12.8463768,16.6144928 L13.0202899,16.6956522 C13.5884058,16.9391304 14.1565217,17.1594203 14.7014493,17.3449275 C14.6898264,17.3655681 14.6781828,17.3861636 14.6665186,17.4067139 L14.6665186,17.4067139 Z"></path>
    <path fill="#BE3626" d="M13.6811594,0.127536232 C13.8666667,0.150724638 14.0521739,0.197101449 14.226087,0.255072464 C15.315942,0.602898551 16.1391304,1.50724638 16.684058,2.8057971 L16.684058,2.8057971 L16.915942,2.8057971 C18.7710145,2.8057971 20.2782609,3.30434783 21.1594203,4.30144928 L21.1710145,4.31304348 C21.1478261,4.28985507 21.1362319,4.26666667 21.1130435,4.24347826 C21.0318841,4.15072464 20.9623188,4.05797101 20.8811594,3.97681159 C19.8608696,2.84057971 18.6202899,1.91304348 17.2405797,1.22898551 C17.0318841,1.12463768 16.8231884,1.03188406 16.6144928,0.950724638 C15.6753623,0.544927536 14.6898551,0.266666667 13.6811594,0.127536232"></path>
    <path fill="#592E27" d="M22.9101449,16.8927536 C22.3768116,17.8202899 21.1478261,18.2724638 19.5130435,18.2724638 C18.1333333,18.2724638 16.4753623,17.9594203 14.6898551,17.3449275 C14.0173913,18.5391304 13.2753623,19.5826087 12.4869565,20.4405797 C11.0144928,22.0405797 9.41449275,22.9913043 7.94202899,22.9913043 C7.6057971,22.9913043 7.28115942,22.9449275 6.96811594,22.8405797 C6.94492754,22.8289855 6.91014493,22.8173913 6.86376812,22.8057971 C6.74782609,22.7594203 6.62028986,22.7130435 6.56231884,22.6782609 C7.32753623,23.0608696 8.12753623,23.373913 8.97391304,23.5826087 C9.9826087,23.826087 10.9797101,23.9536232 11.9768116,23.9536232 C13.9362319,23.9536232 15.8956522,23.4782609 17.6811594,22.515942 C17.8202899,22.4463768 17.9478261,22.3652174 18.0869565,22.2956522 C18.7710145,21.8898551 19.4202899,21.4144928 20.0347826,20.857971 C20.6028986,20.3362319 21.1246377,19.7797101 21.5652174,19.1884058 C21.6,19.1304348 21.6463768,19.084058 21.6811594,19.026087 C21.7043478,18.9913043 21.7275362,18.9681159 21.7507246,18.9333333 C22.2376812,18.2492754 22.6434783,17.5188406 22.9797101,16.7652174 C22.9565217,16.8115942 22.9333333,16.857971 22.9101449,16.8927536 Z"></path>
    <path fill="#6E6B60" d="M42.1178266,7.82307692 C42.1526252,7.97307692 42.1642247,8.08846154 42.1642247,8.16923077 C42.1642247,8.28461538 42.1410256,8.35384615 42.0830281,8.38846154 C42.0250305,8.42307692 41.9438339,8.45769231 41.8394383,8.49230769 C41.468254,8.59615385 41.1666667,8.79230769 40.9346764,9.08076923 C40.7026862,9.36923077 40.4822955,9.77307692 40.2619048,10.2807692 L35.981685,20.3076923 C35.7960928,20.3076923 35.5989011,20.2730769 35.3785104,20.2153846 C35.1581197,20.1576923 35.0189255,20.0653846 34.960928,19.95 L30.4371184,10.1423077 C30.3095238,9.86538462 30.1819292,9.63461538 30.0659341,9.45 C29.9499389,9.26538462 29.8339438,9.12692308 29.7063492,9 C29.5787546,8.88461538 29.4395604,8.78076923 29.2771673,8.71153846 C29.1147741,8.64230769 28.9291819,8.57307692 28.7087912,8.51538462 C28.5347985,8.46923077 28.453602,8.35384615 28.453602,8.16923077 C28.453602,8.05384615 28.4884005,7.93846154 28.546398,7.8 L33.6849817,7.8 C33.7081807,7.88076923 33.7197802,7.95 33.7429792,7.99615385 C33.7545788,8.04230769 33.7661783,8.1 33.7661783,8.14615385 C33.7661783,8.33076923 33.6733822,8.44615385 33.4993895,8.46923077 C33.2094017,8.52692308 32.9774115,8.60769231 32.7918193,8.71153846 C32.6062271,8.81538462 32.5250305,8.96538462 32.5250305,9.18461538 C32.5250305,9.3 32.5598291,9.46153846 32.6410256,9.68076923 L35.9352869,17.3076923 L38.8931624,10.4076923 C39.0787546,9.98076923 39.1599512,9.63461538 39.1599512,9.38076923 C39.1599512,9.15 39.0671551,8.96538462 38.8931624,8.83846154 C38.7191697,8.7 38.4291819,8.58461538 38.0347985,8.46923077 C37.8724054,8.43461538 37.7912088,8.30769231 37.7912088,8.11153846 C37.7912088,8.04230769 37.8028083,7.93846154 37.8376068,7.8 L42.1178266,7.8 L42.1178266,7.82307692 Z M48.3351648,20.4576923 C47.3492063,20.4576923 46.502442,20.2846154 45.7716728,19.95 C45.0409035,19.6153846 44.4377289,19.1653846 43.9505495,18.6230769 C43.46337,18.0807692 43.0921856,17.4576923 42.8601954,16.7538462 C42.6166056,16.0615385 42.5006105,15.3461538 42.5006105,14.6307692 C42.5006105,13.5807692 42.6746032,12.6230769 43.0225885,11.7576923 C43.3705739,10.8923077 43.8113553,10.1653846 44.3565324,9.55384615 C44.9017094,8.94230769 45.5164835,8.48076923 46.2008547,8.14615385 C46.8852259,7.81153846 47.5695971,7.65 48.2539683,7.65 C49.6227106,7.65 50.6782662,8.01923077 51.4090354,8.75769231 C52.1398046,9.49615385 52.510989,10.5692308 52.534188,12 C52.534188,12.2076923 52.5225885,12.4269231 52.510989,12.6461538 C52.4993895,12.8653846 52.464591,13.0961538 52.4297924,13.3269231 L44.4493284,13.3269231 C44.4493284,13.7076923 44.4725275,14.1 44.5189255,14.4923077 C44.5653236,14.8961538 44.6465201,15.2884615 44.7741148,15.6692308 C44.9017094,16.05 45.0757021,16.4076923 45.2960928,16.7538462 C45.5164835,17.0884615 45.8180708,17.3884615 46.1776557,17.6423077 C46.5372405,17.8961538 46.978022,18.0923077 47.4884005,18.2423077 C47.998779,18.3923077 48.6135531,18.4615385 49.3327228,18.4615385 C49.7619048,18.4615385 50.2490842,18.4269231 50.7710623,18.3692308 C51.3046398,18.3 51.7802198,18.2076923 52.2094017,18.0923077 L52.2442002,18.15 C52.0006105,18.6807692 51.7106227,19.0961538 51.3626374,19.3961538 C51.014652,19.6961538 50.6666667,19.9269231 50.2954823,20.0884615 C49.9242979,20.2384615 49.5763126,20.3423077 49.2167277,20.3769231 C48.8687424,20.4346154 48.5787546,20.4576923 48.3351648,20.4576923 L48.3351648,20.4576923 Z M50.4810745,12.0115385 C50.4810745,11.7576923 50.4462759,11.4692308 50.3882784,11.1115385 C50.3186813,10.7653846 50.1910867,10.4307692 50.0054945,10.1076923 C49.8199023,9.78461538 49.541514,9.50769231 49.1819292,9.27692308 C48.8223443,9.04615385 48.3467643,8.93076923 47.7667888,8.93076923 C47.4304029,8.93076923 47.0940171,8.97692308 46.7576313,9.06923077 C46.4212454,9.16153846 46.1776557,9.26538462 46.003663,9.39230769 C45.7832723,9.54230769 45.5860806,9.73846154 45.4236874,9.96923077 C45.2496947,10.2115385 45.1105006,10.4538462 44.982906,10.7192308 C44.8669109,10.9846154 44.7741148,11.25 44.7045177,11.5038462 C44.6349206,11.7576923 44.6001221,11.9884615 44.5885226,12.1961538 L50.4810745,12.0115385 Z M56.6636142,10.1307692 C56.6636142,9.96923077 56.6520147,9.81923077 56.6288156,9.66923077 C56.6056166,9.51923077 56.5708181,9.41538462 56.5128205,9.36923077 C56.4316239,9.28846154 56.2460317,9.23076923 55.9444444,9.17307692 C55.6428571,9.12692308 55.2136752,9.06923077 54.6336996,9.02307692 C54.6221001,8.97692308 54.6105006,8.93076923 54.6105006,8.88461538 C54.6105006,8.85 54.5989011,8.80384615 54.5989011,8.76923077 C54.5989011,8.60769231 54.6452991,8.51538462 54.7380952,8.48076923 C55.5848596,8.23846154 56.2576313,8.05384615 56.7564103,7.91538462 C57.2435897,7.77692308 57.6147741,7.68461538 57.8583639,7.61538462 C58.1019536,7.54615385 58.2527473,7.51153846 58.3107448,7.5 C58.3687424,7.48846154 58.4035409,7.48846154 58.4151404,7.48846154 C58.519536,7.48846154 58.6007326,7.53461538 58.6471306,7.63846154 C58.6935287,7.74230769 58.7167277,7.84615385 58.7167277,7.95 L58.7167277,9.48461538 C58.9255189,9.3 59.1691087,9.09230769 59.4474969,8.86153846 C59.7258852,8.64230769 60.0274725,8.43461538 60.3522589,8.23846154 C60.6770452,8.05384615 61.0018315,7.89230769 61.3382173,7.76538462 C61.6746032,7.63846154 62.0225885,7.58076923 62.3589744,7.58076923 C62.985348,7.58076923 63.4493284,7.68461538 63.7277167,7.89230769 C64.0177045,8.1 64.1568987,8.38846154 64.1568987,8.78076923 C64.1568987,8.94230769 64.1336996,9.13846154 64.0757021,9.35769231 C64.029304,9.58846154 63.9365079,9.83076923 63.7857143,10.0730769 C63.3797314,9.88846154 62.9969475,9.76153846 62.6721612,9.66923077 C62.3357753,9.57692308 61.9529915,9.53076923 61.51221,9.53076923 C61.0598291,9.53076923 60.5842491,9.57692308 60.0970696,9.65769231 C59.5982906,9.73846154 59.1343101,9.84230769 58.7051282,9.94615385 L58.7051282,17.6884615 C58.7051282,18 58.7283272,18.2423077 58.7747253,18.4153846 C58.8211233,18.6 58.9139194,18.7384615 59.0763126,18.8538462 C59.2271062,18.9576923 59.4590965,19.05 59.7490842,19.1192308 C60.039072,19.1884615 60.4334554,19.2692308 60.9206349,19.3615385 C61.0250305,19.3846154 61.1062271,19.4307692 61.1294261,19.5115385 C61.1642247,19.5923077 61.1758242,19.6730769 61.1758242,19.7653846 C61.1758242,19.8115385 61.1642247,19.8923077 61.1410256,19.9846154 C61.1294261,20.0192308 61.1294261,20.0423077 61.1294261,20.0769231 L54.5989011,20.0769231 C54.5873016,20.0423077 54.5873016,19.9961538 54.5873016,19.9615385 L54.5873016,19.8692308 C54.5873016,19.6961538 54.6105006,19.5807692 54.6684982,19.5 C54.7148962,19.4192308 54.7728938,19.3730769 54.8308913,19.3615385 C55.2600733,19.2923077 55.5964591,19.2115385 55.8516484,19.1192308 C56.1068376,19.0269231 56.2924298,18.9115385 56.4084249,18.75 C56.52442,18.6 56.6056166,18.4038462 56.6288156,18.1615385 C56.6636142,17.9192308 56.6752137,17.6192308 56.6752137,17.2615385 L56.6636142,10.1307692 L56.6636142,10.1307692 Z M72.462149,7.91538462 C72.6593407,8.00769231 72.8217338,8.13461538 72.9377289,8.31923077 C73.0537241,8.49230769 73.1233211,8.71153846 73.1233211,8.96538462 C73.1233211,9.11538462 73.1001221,9.31153846 73.0421245,9.55384615 C72.9957265,9.79615385 72.8565324,10.0384615 72.6477411,10.2807692 C72.2649573,9.93461538 71.8125763,9.65769231 71.2905983,9.45 C70.7686203,9.24230769 70.2118437,9.15 69.6318681,9.15 C68.970696,9.15 68.4487179,9.24230769 68.0775336,9.43846154 C67.7063492,9.62307692 67.5091575,9.98076923 67.5091575,10.4884615 C67.5091575,10.8807692 67.6599512,11.2153846 67.9499389,11.5038462 C68.2399267,11.7923077 68.6227106,12.0576923 69.0634921,12.3115385 C69.515873,12.5653846 69.991453,12.8192308 70.513431,13.0730769 C71.0238095,13.3269231 71.510989,13.6153846 71.96337,13.9269231 C72.4157509,14.2384615 72.7869353,14.6076923 73.0885226,15.0230769 C73.3785104,15.4384615 73.529304,15.9461538 73.529304,16.5346154 C73.529304,17.0423077 73.4713065,17.4692308 73.3437118,17.8269231 C73.2277167,18.1846154 73.1233211,18.4153846 73.0537241,18.5307692 C72.8101343,18.9346154 72.5549451,19.2576923 72.2649573,19.5230769 C71.9749695,19.7884615 71.6733822,19.9961538 71.3601954,20.1461538 C71.035409,20.2961538 70.6990232,20.4115385 70.3510379,20.4807692 C69.991453,20.55 69.6318681,20.5730769 69.2606838,20.5730769 C69.017094,20.5730769 68.7735043,20.5615385 68.5067155,20.5269231 C68.2515263,20.4923077 67.9847375,20.4461538 67.7295482,20.3884615 C67.474359,20.3192308 67.2307692,20.25 66.998779,20.1576923 C66.7667888,20.0653846 66.546398,19.9615385 66.3608059,19.8461538 C66.0592186,19.6615385 65.8504274,19.4423077 65.7344322,19.2 C65.6184371,18.9576923 65.5604396,18.7384615 65.5604396,18.5307692 C65.5604396,18.3461538 65.5836386,18.1615385 65.6416361,17.9769231 C65.6996337,17.7923077 65.7692308,17.6423077 65.8504274,17.5038462 C65.954823,17.3192308 66.047619,17.1692308 66.1520147,17.0423077 C66.8363858,17.7346154 67.4859585,18.2653846 68.1007326,18.6115385 C68.7155067,18.9576923 69.3650794,19.1307692 70.0610501,19.1307692 C70.6642247,19.1307692 71.1514042,18.9923077 71.5225885,18.7153846 C71.8937729,18.4384615 72.0909646,18.0230769 72.0909646,17.4923077 C72.0909646,17.0884615 71.9401709,16.7307692 71.6385836,16.4192308 C71.3369963,16.1192308 70.965812,15.8307692 70.513431,15.5769231 C70.0610501,15.3230769 69.5738706,15.0576923 69.0518926,14.8038462 C68.5299145,14.55 68.042735,14.2615385 67.5903541,13.9384615 C67.1379731,13.6153846 66.7667888,13.2461538 66.4652015,12.8192308 C66.1636142,12.3923077 66.0128205,11.8846154 66.0128205,11.2846154 C66.0128205,10.6961538 66.1520147,10.1769231 66.4304029,9.70384615 C66.7087912,9.24230769 67.0683761,8.85 67.5091575,8.53846154 C67.9499389,8.22692308 68.4487179,7.98461538 69.0054945,7.82307692 C69.5622711,7.66153846 70.1190476,7.58076923 70.6758242,7.58076923 C71.3369963,7.56923077 71.9285714,7.68461538 72.462149,7.91538462 L72.462149,7.91538462 Z M84.0500611,20.4576923 C83.7136752,20.4576923 83.4352869,20.4115385 83.2148962,20.3076923 C82.9945055,20.2038462 82.8321123,20.0653846 82.7161172,19.8923077 C82.6001221,19.7192308 82.5189255,19.5 82.4725275,19.2461538 C82.4261294,18.9923077 82.4029304,18.7269231 82.4029304,18.4269231 C82.1825397,18.8192308 81.9157509,19.1538462 81.5909646,19.4307692 C81.3125763,19.6846154 80.964591,19.9038462 80.535409,20.1115385 C80.1178266,20.3192308 79.6190476,20.4230769 79.0506716,20.4230769 C78.517094,20.4230769 78.041514,20.3538462 77.6239316,20.2269231 C77.2063492,20.0884615 76.8467643,19.9038462 76.545177,19.65 C76.2435897,19.3961538 76.0115995,19.1076923 75.8492063,18.75 C75.6868132,18.4038462 75.6056166,18.0115385 75.6056166,17.5730769 C75.6056166,16.9269231 75.7796093,16.3384615 76.1275946,15.8076923 C76.47558,15.2769231 76.95116,14.8269231 77.5543346,14.4692308 C78.1575092,14.1 78.8766789,13.8230769 79.6886447,13.6153846 C80.51221,13.4192308 81.3937729,13.3153846 82.3449328,13.3153846 L82.3449328,11.2153846 C82.3449328,10.4653846 82.1245421,9.91153846 81.6953602,9.55384615 C81.2661783,9.19615385 80.6630037,9.01153846 79.8742369,9.01153846 C79.2014652,9.01153846 78.7142857,9.13846154 78.4242979,9.40384615 C78.1343101,9.65769231 77.9835165,10.0269231 77.9835165,10.5115385 C77.9835165,10.5807692 77.9835165,10.6730769 77.995116,10.7884615 C77.995116,10.9038462 78.0067155,10.9961538 78.0299145,11.0769231 L77.8675214,11.1115385 C77.8211233,11.1230769 77.7631258,11.1230769 77.7051282,11.1230769 L77.519536,11.1230769 C77.4383394,11.1230769 77.3223443,11.1115385 77.1715507,11.0884615 C77.020757,11.0653846 76.8583639,11.0307692 76.6959707,10.9615385 C76.5335775,10.8923077 76.3943834,10.8 76.2783883,10.6730769 C76.1623932,10.5461538 76.1043956,10.3615385 76.1043956,10.1307692 C76.1043956,9.79615385 76.2783883,9.48461538 76.6263736,9.18461538 C76.974359,8.88461538 77.4035409,8.61923077 77.9139194,8.38846154 C78.4242979,8.15769231 78.969475,7.97307692 79.5494505,7.83461538 C80.1294261,7.69615385 80.6514042,7.62692308 81.1153846,7.62692308 C81.7301587,7.62692308 82.2405372,7.73076923 82.6581197,7.93846154 C83.0757021,8.14615385 83.4120879,8.41153846 83.6672772,8.74615385 C83.9224664,9.08076923 84.1080586,9.45 84.2124542,9.86538462 C84.3168498,10.2807692 84.3748474,10.6961538 84.3748474,11.1115385 L84.3748474,17.4692308 C84.3748474,18 84.456044,18.3807692 84.6184371,18.5769231 C84.7808303,18.7846154 85.0360195,18.8884615 85.3956044,18.8884615 C85.5811966,18.8884615 85.7899878,18.8653846 86.0103785,18.8307692 C86.2307692,18.7961538 86.3931624,18.7384615 86.5091575,18.6807692 L86.543956,18.7384615 C86.497558,18.9115385 86.4047619,19.0961538 86.2887668,19.2923077 C86.1727717,19.4884615 86.0103785,19.6730769 85.8131868,19.8576923 C85.6159951,20.0307692 85.3724054,20.1807692 85.0824176,20.2961538 C84.7808303,20.4 84.4444444,20.4576923 84.0500611,20.4576923 L84.0500611,20.4576923 Z M82.3565324,14.7576923 C82.2521368,14.7461538 82.1245421,14.7461538 82.008547,14.7346154 C81.8809524,14.7346154 81.7533578,14.7230769 81.6141636,14.7230769 C81.2777778,14.7230769 80.9181929,14.7461538 80.5586081,14.7807692 C80.1874237,14.8153846 79.8394383,14.8615385 79.5030525,14.9307692 C79.1666667,15 78.8650794,15.0807692 78.5982906,15.1846154 C78.3315018,15.2884615 78.1227106,15.4153846 77.971917,15.5653846 C77.8327228,15.6923077 77.7167277,15.8653846 77.6239316,16.0961538 C77.5311355,16.3153846 77.4847375,16.5576923 77.4847375,16.7884615 C77.4847375,17.0423077 77.5311355,17.2730769 77.6239316,17.5038462 C77.7167277,17.7346154 77.8675214,17.9307692 78.0763126,18.1038462 C78.2851038,18.2769231 78.5634921,18.4153846 78.8998779,18.5192308 C79.2362637,18.6230769 79.6538462,18.6807692 80.1410256,18.6807692 C80.5238095,18.6807692 80.9065934,18.6346154 81.3009768,18.5423077 C81.6953602,18.45 82.0433455,18.3115385 82.3681319,18.1269231 L82.3565324,14.7576923 L82.3565324,14.7576923 Z M90.4297924,2.74615385 C90.4297924,2.58461538 90.4181929,2.43461538 90.3949939,2.28461538 C90.3717949,2.13461538 90.3369963,2.03076923 90.2789988,1.98461538 C90.1978022,1.90384615 90.01221,1.83461538 89.7106227,1.78846154 C89.4090354,1.74230769 88.9798535,1.68461538 88.3998779,1.63846154 C88.3882784,1.59230769 88.3766789,1.54615385 88.3766789,1.5 C88.3766789,1.46538462 88.3650794,1.41923077 88.3650794,1.38461538 C88.3650794,1.22307692 88.4114774,1.13076923 88.5042735,1.09615385 C89.3858364,0.853846154 90.0702076,0.669230769 90.5573871,0.542307692 C91.0445665,0.403846154 91.4041514,0.311538462 91.6361416,0.253846154 C91.8681319,0.196153846 92.007326,0.161538462 92.0537241,0.138461538 C92.1001221,0.126923077 92.1233211,0.115384615 92.1349206,0.115384615 C92.2393162,0.115384615 92.3205128,0.161538462 92.3669109,0.265384615 C92.4133089,0.369230769 92.4365079,0.473076923 92.4365079,0.576923077 L92.4365079,17.7115385 C92.4365079,18.0230769 92.459707,18.2653846 92.506105,18.4384615 C92.5525031,18.6230769 92.6452991,18.7615385 92.7960928,18.8769231 C92.9468864,18.9807692 93.1672772,19.0730769 93.457265,19.1423077 C93.7472527,19.2115385 94.1416361,19.2923077 94.6288156,19.3846154 C94.7332112,19.4076923 94.8144078,19.4538462 94.8376068,19.5346154 C94.8724054,19.6153846 94.8840049,19.6961538 94.8840049,19.7884615 C94.8840049,19.8346154 94.8724054,19.9153846 94.8492063,20.0076923 C94.8376068,20.0423077 94.8376068,20.0653846 94.8376068,20.1 L88.3534799,20.1 C88.3418803,20.0653846 88.3418803,20.0192308 88.3418803,19.9846154 L88.3418803,19.8923077 C88.3418803,19.7192308 88.3650794,19.6038462 88.4114774,19.5230769 C88.4578755,19.4423077 88.515873,19.3961538 88.5738706,19.3846154 C89.0030525,19.3153846 89.3510379,19.2346154 89.5946276,19.1423077 C89.8498168,19.05 90.035409,18.9346154 90.1514042,18.7730769 C90.2673993,18.6230769 90.3485958,18.4269231 90.3717949,18.1846154 C90.4065934,17.9423077 90.4181929,17.6423077 90.4181929,17.2846154 L90.4297924,2.74615385 L90.4297924,2.74615385 Z"></path>
  </g>
</svg>